<?xml version="1.0" encoding="UTF-8"?>
<svg version="1.1" xmlns="http://www.w3.org/2000/svg" width="2000" height="614">
<path d="M0 0 C1.13787964 -0.00315216 2.27575928 -0.00630432 3.44812012 -0.009552 C4.6866272 -0.00752777 5.92513428 -0.00550354 7.20117188 -0.00341797 C8.46255981 -0.00437469 9.72394775 -0.00533142 11.02355957 -0.00631714 C13.69689325 -0.00699922 16.37013624 -0.00564076 19.04345703 -0.00097656 C22.47698878 0.00472073 25.91044237 0.00144152 29.34397125 -0.00454903 C32.6088743 -0.00902309 35.87376781 -0.0058943 39.13867188 -0.00341797 C40.37717896 -0.0054422 41.61568604 -0.00746643 42.89172363 -0.009552 C44.02960327 -0.00639984 45.16748291 -0.00324768 46.33984375 0 C47.34720581 0.00079559 48.35456787 0.00159119 49.39245605 0.00241089 C51.66992188 0.12939453 51.66992188 0.12939453 52.66992188 1.12939453 C52.78111353 3.72890623 52.83163117 6.30618276 52.84570312 8.90673828 C52.86896742 10.55323451 52.89308707 12.19971883 52.91796875 13.84619141 C52.95256558 16.42788883 52.98211479 19.00916741 52.99584961 21.59106445 C53.17005999 49.00641773 60.682501 72.93379638 78.66992188 94.12939453 C79.19972656 94.80486328 79.72953125 95.48033203 80.27539062 96.17626953 C91.34210749 109.83888294 108.06844296 118.11974822 122.87866211 127.04821777 C125.86973914 128.85358572 128.85573126 130.66731628 131.84179688 132.48095703 C133.03376689 133.20484369 134.22574279 133.92872066 135.41772461 134.65258789 C136.00592987 135.00980927 136.59413513 135.36703064 137.20016479 135.7350769 C138.98523471 136.8186019 140.77097617 137.90101231 142.55688477 138.9831543 C150.28520993 143.66776344 157.98068618 148.40237204 165.6550293 153.17480469 C172.39684882 157.35982952 179.17844778 161.47753098 185.96734619 165.58547974 C194.76808065 170.91344667 203.5666292 176.24583139 212.29492188 181.69189453 C213.00922363 182.13154541 213.72352539 182.57119629 214.45947266 183.02416992 C218.48813531 185.55746703 222.22380219 188.31569256 225.92919922 191.30493164 C226.81989105 192.02208847 227.71058289 192.7392453 228.62826538 193.47813416 C229.30201202 194.02305008 229.97575867 194.567966 230.66992188 195.12939453 C230.67415381 194.13049226 230.67838575 193.13158998 230.68274593 192.10241795 C230.78578733 167.83419416 230.89451585 143.56600098 231.00926113 119.29782963 C231.06461766 107.56208877 231.11810358 95.82634487 231.16723633 84.09057617 C231.21004848 73.86565706 231.25631885 63.64076056 231.30680043 53.41587633 C231.33342536 47.9983026 231.35827894 42.58073343 231.3789959 37.16313362 C231.39852588 32.07018933 231.42265853 26.97728816 231.45041275 21.88438225 C231.45980253 20.00940608 231.46747082 18.13442042 231.47334099 16.25942993 C231.48156958 13.71111856 231.49583677 11.16291279 231.51170349 8.61463928 C231.5126816 7.86270815 231.5136597 7.11077703 231.51466745 6.33606011 C231.55580066 1.24351574 231.55580066 1.24351574 232.66992188 0.12939453 C234.20078027 0.03357631 235.73605943 0.00751345 237.26991272 0.00914001 C238.26415756 0.00776535 239.2584024 0.00639069 240.28277588 0.00497437 C241.38256775 0.00856964 242.48235962 0.01216492 243.61547852 0.01586914 C245.34207954 0.0156501 245.34207954 0.0156501 247.1035614 0.01542664 C250.92908579 0.01612636 254.75456219 0.02392151 258.58007812 0.03173828 C261.22423781 0.03360225 263.86839783 0.03502625 266.51255798 0.036026 C272.77407605 0.03913904 279.03557673 0.04735205 285.29708713 0.05737549 C292.42393725 0.06853749 299.55078817 0.0740473 306.67764485 0.07907093 C321.34174617 0.08953469 336.00583378 0.1071336 350.66992188 0.12939453 C351.47013508 1.71788084 352.26897069 3.30706117 353.06723022 4.89653015 C353.73473077 6.22387948 353.73473077 6.22387948 354.41571617 7.57804394 C356.00400741 10.80900341 357.4009805 14.0690189 358.77148438 17.39892578 C359.04521881 18.06038605 359.31895325 18.72184631 359.60098267 19.40335083 C360.1919366 20.83206171 360.7813237 22.26142152 361.3692627 23.69137573 C363.01063282 27.68197443 364.66534942 31.66704416 366.31835938 35.65283203 C366.84441772 36.92244026 366.84441772 36.92244026 367.38110352 38.21769714 C371.5155023 48.18649421 375.71687154 58.12689515 379.91992188 68.06689453 C380.72389339 69.96906857 381.52784837 71.87124961 382.33178711 73.7734375 C383.95993555 77.62531122 385.58849153 81.47701234 387.21728516 85.32861328 C391.26741629 94.90659614 395.31235543 104.4867719 399.35742188 114.06689453 C399.75376831 115.00548309 400.15011475 115.94407166 400.55847168 116.91110229 C406.25990192 130.41295121 411.95238251 143.91853919 417.63696289 157.42749023 C422.38050739 168.69983558 427.1338792 179.96799582 431.89331055 191.23364258 C434.69792836 197.87228459 437.50015025 204.51193713 440.30192566 211.15177917 C442.4599562 216.2653464 444.62099793 221.37762323 446.78507996 226.4886322 C448.02602925 229.42128024 449.26413075 232.35512363 450.50137329 235.28933716 C451.06697397 236.62896654 451.63382552 237.96806856 452.20199585 239.30661011 C452.96929454 241.11465186 453.73186628 242.92469752 454.49414062 244.73486328 C454.91783936 245.73670654 455.34153809 246.7385498 455.77807617 247.77075195 C456.66992188 250.12939453 456.66992188 250.12939453 456.66992188 252.12939453 C457.32992188 252.12939453 457.98992187 252.12939453 458.66992188 252.12939453 C458.8422081 251.5865683 459.01449432 251.04374207 459.19200134 250.48446655 C461.0249666 244.83384814 463.14979131 239.3777639 465.48632812 233.91845703 C465.85468277 233.04971451 466.22303741 232.18097198 466.60255432 231.28590393 C467.39559736 229.41648267 468.19017288 227.54771089 468.98614502 225.67953491 C471.13619764 220.63313955 473.27513381 215.58202932 475.41601562 210.53173828 C475.85546509 209.49602188 476.29491455 208.46030548 476.74768066 207.39320374 C480.75896795 197.93442496 484.72643696 188.45763207 488.68453979 178.97650146 C495.14129244 163.51117255 501.65556351 148.0716402 508.22473145 132.65374756 C513.71294226 119.76974902 519.14592776 106.86352137 524.54492188 93.94189453 C532.80681735 74.16893718 541.12905577 54.42189736 549.47702026 34.68513489 C551.74950543 29.31114217 554.01514342 23.93432557 556.27539062 18.55517578 C556.80078247 17.30652551 557.32625084 16.05790744 557.85180664 14.80932617 C558.78259239 12.59707629 559.71159989 10.38407698 560.63842773 8.17016602 C561.03296143 7.23374268 561.42749512 6.29731934 561.83398438 5.33251953 C562.16865723 4.53491211 562.50333008 3.73730469 562.84814453 2.91552734 C563.66992188 1.12939453 563.66992188 1.12939453 564.66992188 0.12939453 C566.19845678 0.03141065 567.73151152 0.00307622 569.26318359 0.00241089 C570.75238312 -0.00181885 570.75238312 -0.00181885 572.27166748 -0.00613403 C573.36988831 -0.0041098 574.46810913 -0.00208557 575.59960938 0 C576.74907043 -0.00175232 577.89853149 -0.00350464 579.08282471 -0.00531006 C582.90353887 -0.00973137 586.72420719 -0.0067896 590.54492188 -0.00341797 C593.18668629 -0.00409093 595.82845064 -0.00506088 598.47021484 -0.00631714 C604.01530458 -0.00813868 609.56038103 -0.00573294 615.10546875 -0.00097656 C621.52486932 0.00446603 627.94423813 0.00270336 634.36363792 -0.00280297 C640.5279317 -0.00787973 646.69221135 -0.00735258 652.85650635 -0.00442123 C655.48488367 -0.00375169 658.1132618 -0.00458135 660.74163818 -0.00690079 C664.40785911 -0.00942566 668.07401809 -0.00558904 671.74023438 0 C672.8384552 -0.00202423 673.93667603 -0.00404846 675.06817627 -0.00613403 C676.06097595 -0.00331421 677.05377563 -0.00049438 678.07666016 0.00241089 C678.94461212 0.00278791 679.81256409 0.00316494 680.70681763 0.00355339 C682.66992188 0.12939453 682.66992188 0.12939453 683.66992188 1.12939453 C683.76835396 2.95810447 683.79547824 4.79066743 683.79576302 6.62202454 C683.79967464 8.42151818 683.79967464 8.42151818 683.80366528 10.25736523 C683.80150276 11.60574038 683.79924608 12.95411538 683.79690552 14.30249023 C683.79805637 15.72157233 683.79964365 17.14065413 683.80163276 18.5597353 C683.805831 22.47769474 683.80373318 26.39563001 683.80064654 30.31358957 C683.79839466 34.53176448 683.80187099 38.74993507 683.80462646 42.96810913 C683.80908544 51.23879078 683.80810713 59.50946339 683.80521382 67.78014541 C683.80296029 74.49874556 683.80264705 81.21734318 683.80373764 87.9359436 C683.80396749 89.36739368 683.80396749 89.36739368 683.80420198 90.82776195 C683.80452169 92.76608268 683.8048459 94.70440342 683.80517457 96.64272416 C683.80802974 114.84099786 683.80474177 133.03926653 683.79937421 151.23753941 C683.79490614 166.87043895 683.79568206 182.50333106 683.80029297 198.13623047 C683.80563809 216.26703482 683.80775505 234.39783476 683.80468071 252.52863979 C683.80436214 254.46004168 683.80404777 256.39144357 683.80373764 258.32284546 C683.80358336 259.27326369 683.80342909 260.22368192 683.80327014 261.20290071 C683.8024048 267.91754564 683.80386823 274.63218778 683.80621719 281.34683228 C683.8090147 289.52382993 683.80827798 297.70081798 683.80293645 305.87781453 C683.80029877 310.05405026 683.79929549 314.23026995 683.8025856 318.40650558 C683.8055472 322.22333492 683.80395805 326.04013321 683.79860805 329.8569597 C683.79748328 331.24388294 683.79807636 332.63080875 683.80048384 334.01773036 C683.80348777 335.89074 683.79983444 337.7637569 683.79576302 339.63676453 C683.79560066 340.68083308 683.79543831 341.72490164 683.79527104 342.80060863 C683.66992188 345.12939453 683.66992188 345.12939453 682.66992188 346.12939453 C663.85992188 346.12939453 645.04992187 346.12939453 625.66992188 346.12939453 C625.33992187 234.58939453 625.00992188 123.04939453 624.66992188 8.12939453 C618.72992187 22.31939453 612.78992188 36.50939453 606.66992188 51.12939453 C603.52903345 58.58988157 600.38616341 66.04936121 597.23242188 73.50439453 C596.44849022 75.35917949 595.66463897 77.21399843 594.88085938 79.06884766 C593.27455188 82.87008156 591.66792113 86.67117857 590.06103516 90.47216797 C586.49004658 98.9199068 582.92339587 107.36947716 579.35641479 115.81890869 C577.37776123 120.50581221 575.39882738 125.19259738 573.41992188 129.87939453 C572.62825387 131.75439396 571.8365872 133.62939396 571.04492188 135.50439453 C569.46158854 139.25439453 567.87825521 143.00439453 566.29492188 146.75439453 C565.90305191 147.68250946 565.51118195 148.61062439 565.10743713 149.56686401 C564.31572498 151.44196801 563.52400745 153.31706973 562.73228455 155.19216919 C560.75376984 159.87805951 558.77534833 164.56398914 556.79711914 169.25 C553.22694978 177.70672991 549.65610786 186.16317252 546.08178711 194.6181488 C544.0898699 199.33003546 542.0984839 204.04214645 540.10742188 208.75439453 C539.51818939 210.14892349 539.51818939 210.14892349 538.91705322 211.57162476 C532.72012708 226.2412914 526.56476812 240.92802835 520.4251709 255.62176514 C514.25610676 270.38222482 508.01984743 285.11321443 501.74755859 299.83007812 C498.39235121 307.70536946 495.05092633 315.58582444 491.75195312 323.48486328 C491.29105537 324.58790298 491.29105537 324.58790298 490.82084656 325.71322632 C489.38164137 329.15933327 487.94567406 332.60674222 486.5144043 336.05615234 C486.0191626 337.2443457 485.5239209 338.43253906 485.01367188 339.65673828 C484.58248047 340.69564209 484.15128906 341.7345459 483.70703125 342.80493164 C482.66992188 345.12939453 482.66992188 345.12939453 481.66992188 346.12939453 C480.16573448 346.22251343 478.65720831 346.24685481 477.15014648 346.24291992 C475.70876564 346.24280663 475.70876564 346.24280663 474.23826599 346.24269104 C473.19348587 346.23752975 472.14870575 346.23236847 471.07226562 346.22705078 C469.47627281 346.22492836 469.47627281 346.22492836 467.84803772 346.22276306 C464.43447104 346.21714517 461.02096888 346.20458964 457.60742188 346.19189453 C455.29948011 346.18688184 452.99153732 346.18231853 450.68359375 346.17822266 C445.01234761 346.16716993 439.34113935 346.1504144 433.66992188 346.12939453 C430.77081335 340.44155511 427.99827987 334.76382981 425.56835938 328.85986328 C425.29462494 328.19840302 425.0208905 327.53694275 424.73886108 326.85543823 C424.14790715 325.42672736 423.55852005 323.99736754 422.97058105 322.56741333 C421.32921093 318.57681463 419.67449433 314.5917449 418.02148438 310.60595703 C417.67077881 309.75955154 417.32007324 308.91314606 416.95874023 308.04109192 C412.82434158 298.07229517 408.62300503 288.13187976 404.41992188 278.19189453 C403.61375515 276.28459267 402.80760291 274.37728468 402.00146484 272.4699707 C400.37109979 268.61297822 398.740335 264.756155 397.109375 260.89941406 C393.1255099 251.47778377 389.14813138 242.05341384 385.16992188 232.62939453 C383.58795838 228.88197009 382.00593081 225.13457271 380.42382812 221.38720703 C380.03213943 220.45944962 379.64045074 219.5316922 379.2368927 218.57582092 C376.85315441 212.93021203 374.4680107 207.28519912 372.08178711 201.64064026 C370.0898699 196.92875361 368.0984839 192.21664261 366.10742188 187.50439453 C365.71460022 186.57470856 365.32177856 185.64502258 364.91705322 184.68716431 C358.71842895 170.01347778 352.56134939 155.32272981 346.4201355 140.62493896 C340.70548063 126.95150258 334.93224751 113.3039996 329.12216187 99.67086792 C322.76739407 84.75665476 316.49353945 69.80941406 310.25976562 54.84423828 C306.02556471 44.69124208 301.72639659 34.5672966 297.38793945 24.45849609 C296.8303402 23.15847265 296.27277621 21.85843409 295.71524811 20.55838013 C294.36721117 17.41521103 293.01870164 14.27224496 291.66992188 11.12939453 C291.66818563 11.83574868 291.66644938 12.54210282 291.66466051 13.26986164 C291.56174107 55.08899263 291.4536522 96.90810746 291.33880493 138.72720748 C291.32503455 143.74302428 291.31130758 148.75884121 291.29760742 153.7746582 C291.29487912 154.77326123 291.29215081 155.77186425 291.28933983 156.80072797 C291.24520632 172.9922282 291.20459289 189.18373546 291.16526926 205.37524801 C291.12487312 221.9762758 291.08071992 238.57729051 291.03304332 255.17829901 C291.003719 265.43064578 290.97736209 275.68299152 290.9547429 285.93535531 C290.93897405 292.95578263 290.91957196 299.9761939 290.89725346 306.99660342 C290.8844659 311.05333532 290.87333698 315.11005479 290.86650276 319.16680145 C290.8602214 322.87450651 290.84941885 326.58216877 290.83488857 330.28985042 C290.82830511 332.27938965 290.82667707 334.26894333 290.8251763 336.25849289 C290.81970185 337.42393806 290.81422741 338.58938323 290.80858707 339.79014492 C290.80460001 341.31149442 290.80460001 341.31149442 290.8005324 342.86357826 C290.66992188 345.12939453 290.66992188 345.12939453 289.66992188 346.12939453 C287.89546178 346.22833231 286.11705936 346.25738546 284.33984375 346.25878906 C283.20196411 346.26194122 282.06408447 346.26509338 280.89172363 346.26834106 C279.65321655 346.26631683 278.41470947 346.2642926 277.13867188 346.26220703 C275.87728394 346.26316376 274.615896 346.26412048 273.31628418 346.2651062 C270.6429505 346.26578828 267.96970751 346.26442982 265.29638672 346.25976562 C261.86285497 346.25406834 258.42940138 346.25734754 254.9958725 346.26333809 C251.73096945 346.26781215 248.46607594 346.26468337 245.20117188 346.26220703 C243.96266479 346.26423126 242.72415771 346.26625549 241.44812012 346.26834106 C240.31024048 346.2651889 239.17236084 346.26203674 238 346.25878906 C236.99263794 346.25799347 235.98527588 346.25719788 234.9473877 346.25637817 C232.66992188 346.12939453 232.66992188 346.12939453 231.66992188 345.12939453 C231.55873022 342.52988284 231.50821258 339.9526063 231.49414062 337.35205078 C231.47087633 335.70555455 231.44675668 334.05907024 231.421875 332.41259766 C231.38727817 329.83090024 231.35772896 327.24962165 231.34399414 324.66772461 C231.16340691 296.24885144 222.74285917 271.63646543 203.66992188 250.12939453 C203.05632812 249.43201172 202.44273437 248.73462891 201.81054688 248.01611328 C190.98873876 236.477476 176.48983209 228.89319864 163.02929688 220.91455078 C157.42967463 217.59386407 151.88218493 214.19784832 146.35742188 210.75439453 C138.1633405 205.6542155 129.92529552 200.62943254 121.66992188 195.62939453 C111.6491336 189.55838633 101.65702622 183.44411454 91.70898438 177.25439453 C88.19434597 175.06861234 84.6669008 172.90537334 81.13085938 170.75439453 C80.206521 170.18946289 79.28218262 169.62453125 78.32983398 169.04248047 C76.59658226 167.98365967 74.86068987 166.92914072 73.12133789 165.88037109 C68.34960936 162.95649191 63.81475041 159.80514758 59.35571289 156.42529297 C58.8060511 156.01076874 58.25638931 155.59624451 57.69007111 155.16915894 C56.34889893 154.15739028 55.00925109 153.14360154 53.66992188 152.12939453 C53.66568994 153.12314307 53.661458 154.11689161 53.65709782 155.14075375 C53.55405629 179.28379966 53.44532775 203.4268148 53.33058262 227.56980801 C53.27522616 239.24501465 53.22174025 250.92022435 53.17260742 262.59545898 C53.12979519 272.76764048 53.0835248 282.93979925 53.03304332 293.11194569 C53.00641845 298.5015737 52.98156487 303.89119714 52.96084785 309.28085136 C52.94131778 314.34753097 52.91718511 319.41416723 52.889431 324.48080826 C52.88004126 326.34610904 52.87237296 328.21141936 52.86650276 330.07673454 C52.8582741 332.61190898 52.84400688 335.14697727 52.82814026 337.68211365 C52.82716215 338.43015383 52.82618405 339.17819401 52.8251763 339.94890207 C52.78404309 345.01527332 52.78404309 345.01527332 51.66992188 346.12939453 C49.89546178 346.22833231 48.11705936 346.25738546 46.33984375 346.25878906 C45.20196411 346.26194122 44.06408447 346.26509338 42.89172363 346.26834106 C41.65321655 346.26631683 40.41470947 346.2642926 39.13867188 346.26220703 C37.87728394 346.26316376 36.615896 346.26412048 35.31628418 346.2651062 C32.6429505 346.26578828 29.96970751 346.26442982 27.29638672 346.25976562 C23.86285497 346.25406834 20.42940138 346.25734754 16.9958725 346.26333809 C13.73096945 346.26781215 10.46607594 346.26468337 7.20117188 346.26220703 C5.96266479 346.26423126 4.72415771 346.26625549 3.44812012 346.26834106 C2.31024048 346.2651889 1.17236084 346.26203674 0 346.25878906 C-1.00736206 346.25799347 -2.01472412 346.25719788 -3.0526123 346.25637817 C-5.33007813 346.12939453 -5.33007813 346.12939453 -6.33007812 345.12939453 C-6.42851021 343.30068459 -6.45563449 341.46812163 -6.45591927 339.63676453 C-6.45852701 338.4371021 -6.46113476 337.23743967 -6.46382153 336.00142384 C-6.46165901 334.65304868 -6.45940233 333.30467368 -6.45706177 331.95629883 C-6.45821262 330.53721673 -6.4597999 329.11813493 -6.46178901 327.69905376 C-6.46598725 323.78109432 -6.46388943 319.86315905 -6.46080279 315.94519949 C-6.45855091 311.72702459 -6.46202724 307.50885399 -6.46478271 303.29067993 C-6.46924169 295.01999828 -6.46826338 286.74932567 -6.46537007 278.47864366 C-6.46311654 271.7600435 -6.4628033 265.04144589 -6.46389389 258.32284546 C-6.46412374 256.89139538 -6.46412374 256.89139538 -6.46435823 255.43102711 C-6.46467794 253.49270638 -6.46500215 251.55438564 -6.46533082 249.61606491 C-6.46818599 231.4177912 -6.46489802 213.21952253 -6.45953046 195.02124965 C-6.45506239 179.38835011 -6.45583831 163.755458 -6.46044922 148.12255859 C-6.46579434 129.99175424 -6.4679113 111.8609543 -6.46483696 93.73014927 C-6.46451839 91.79874738 -6.46420402 89.86734549 -6.46389389 87.9359436 C-6.46373961 86.98552537 -6.46358534 86.03510714 -6.46342639 85.05588835 C-6.46256105 78.34124343 -6.46402448 71.62660128 -6.46637344 64.91195679 C-6.46917095 56.73495913 -6.46843423 48.55797108 -6.4630927 40.38097453 C-6.46045502 36.2047388 -6.45945174 32.02851911 -6.46274185 27.85228348 C-6.46570345 24.03545414 -6.4641143 20.21865585 -6.4587643 16.40182936 C-6.45763953 15.01490613 -6.45823261 13.62798031 -6.46064009 12.24105871 C-6.46364402 10.36804906 -6.45999069 8.49503216 -6.45591927 6.62202454 C-6.45575691 5.57795598 -6.45559456 4.53388742 -6.45542729 3.45818043 C-6.21920464 -0.93045652 -3.84053357 0.00303317 0 0 Z " fill="#020202" transform="translate(148.330078125,133.87060546875)"/>
<path d="M0 0 C15.84 0 31.68 0 48 0 C54.88351154 14.914275 54.88351154 14.914275 57.85546875 22.09375 C58.19451233 22.90665497 58.53355591 23.71955994 58.88287354 24.55709839 C59.60872723 26.29795114 60.33352993 28.03924244 61.05734253 29.78094482 C63.03803884 34.5463184 65.02742228 39.30806705 67.015625 44.0703125 C67.42715317 45.05657623 67.83868134 46.04283997 68.26268005 47.05899048 C72.62548977 57.50983149 77.02837968 67.94363039 81.4375 78.375 C82.23201727 80.25520736 83.02653224 82.1354157 83.82104492 84.015625 C85.41673532 87.79144977 87.01273919 91.56714189 88.60888672 95.34277344 C92.18014677 103.79115448 95.74707531 112.24136438 99.31433105 120.69143677 C101.28883934 125.36856979 103.26355108 130.04561691 105.23828125 134.72265625 C105.62954193 135.64934616 106.02080261 136.57603607 106.42391968 137.5308075 C108.82873917 143.22641472 111.23397012 148.921848 113.63949585 154.61715698 C121.76030656 173.84398394 129.87721906 193.07241023 137.97207642 212.31018066 C141.83681061 221.49471887 145.70673403 230.67703127 149.5859375 239.85546875 C150.17313065 241.24489182 150.17313065 241.24489182 150.77218628 242.66238403 C151.16656891 243.59557465 151.56095154 244.52876526 151.96728516 245.49023438 C152.76986416 247.38931979 153.57243577 249.28840834 154.375 251.1875 C154.96822052 252.59116821 154.96822052 252.59116821 155.57342529 254.02319336 C162.65353258 270.77931496 169.68823675 287.55420946 176.68832397 304.34391785 C181.39365905 315.59347941 186.1956217 326.78978397 191 338 C191.33 226.46 191.66 114.92 192 0 C211.14 0 230.28 0 250 0 C250 95.04 250 190.08 250 288 C305.90222646 287.96037854 305.90222646 287.96037854 361.80444336 287.90991211 C372.59094238 287.90539551 372.59094238 287.90539551 377.63282776 287.90455627 C381.17112346 287.90362071 384.70940432 287.89985776 388.24769592 287.89442444 C392.7522135 287.88759833 397.25670928 287.88550269 401.76123154 287.88692772 C403.41988183 287.88662946 405.07853282 287.88462713 406.73717868 287.88078487 C408.96677663 287.87585735 411.1962884 287.87699289 413.42588806 287.87974548 C414.67860473 287.87882369 415.93132139 287.8779019 417.22199917 287.87695217 C420 288 420 288 421 289 C421.09887792 290.74382535 421.12799032 292.49165543 421.12939453 294.23828125 C421.13412277 295.91506958 421.13412277 295.91506958 421.13894653 297.62573242 C421.1369223 298.84236572 421.13489807 300.05899902 421.1328125 301.3125 C421.13376923 302.55169189 421.13472595 303.79088379 421.13571167 305.06762695 C421.13639374 307.69388281 421.13503538 310.32004633 421.13037109 312.94628906 C421.12467381 316.31928714 421.12795302 319.69220565 421.13394356 323.06520081 C421.1384177 326.27263677 421.13528882 329.480063 421.1328125 332.6875 C421.13483673 333.9041333 421.13686096 335.1207666 421.13894653 336.37426758 C421.13579437 337.49212646 421.13264221 338.60998535 421.12939453 339.76171875 C421.12820114 341.2461145 421.12820114 341.2461145 421.12698364 342.76049805 C421 345 421 345 420 346 C418.45179407 346.09693306 416.89915199 346.12371675 415.3479147 346.12304783 C413.82965105 346.1260344 413.82965105 346.1260344 412.28071541 346.12908131 C410.59252216 346.12471205 410.59252216 346.12471205 408.870224 346.12025452 C407.68513939 346.12110894 406.50005478 346.12196337 405.27905852 346.12284368 C401.97483961 346.12421187 398.67067922 346.12106439 395.36646736 346.11606562 C391.80885114 346.11176443 388.25123686 346.11320731 384.69361877 346.1139679 C378.52489222 346.11449334 372.35617621 346.11134439 366.18745232 346.10573006 C357.26841164 346.09761785 348.34937609 346.09500012 339.43033213 346.09374207 C324.96128298 346.09155111 310.49223945 346.08488983 296.02319336 346.07543945 C281.96427438 346.06626647 267.90535692 346.05918508 253.84643555 346.05493164 C252.98046955 346.05466892 252.11450356 346.05440619 251.22229617 346.05413551 C246.87818615 346.05283051 242.53407612 346.05156679 238.18996608 346.05032361 C202.12664008 346.03994962 166.06332048 346.02233011 130 346 C129.35814459 344.45862649 129.35814459 344.45862649 128.70332241 342.88611412 C127.09216357 339.01718696 125.48071487 335.14838058 123.86918545 331.27960777 C123.17614944 329.61573763 122.48318858 327.95183619 121.79030895 326.28790092 C116.7778984 314.25090054 111.74247903 302.22408089 106.65957642 290.21664429 C104.69302206 285.57101587 102.7296305 280.92405016 100.765625 276.27734375 C100.37127762 275.34459122 99.97693024 274.41183868 99.57063293 273.45082092 C95.30811171 263.36717814 91.05937206 253.27774155 86.8125 243.1875 C86.46212677 242.35510803 86.11175354 241.52271606 85.75076294 240.6651001 C83.83352455 236.11020026 81.91659512 231.55517055 80 227 C77.07767128 227 76.26955199 228.4913413 74.1875 230.5 C57.72231332 245.36586122 38.24644155 250.93078461 17 255 C11.01468977 256.14993841 5.03148504 257.31005936 -0.94970703 258.48123169 C-3.56482249 258.98833093 -6.18249626 259.48002917 -8.80078125 259.97045898 C-26.95369896 263.44329244 -43.99171909 268.97546317 -55 285 C-56.24567118 287.25578501 -57.43273481 289.50320006 -58.578125 291.80859375 C-58.91996826 292.4951001 -59.26181152 293.18160645 -59.61401367 293.88891602 C-64.51111191 303.8980803 -68.71236523 314.21989952 -73 324.5 C-75.97 331.595 -78.94 338.69 -82 346 C-102.79 346 -123.58 346 -145 346 C-144.08023306 341.40116531 -142.66575716 337.53091932 -140.81640625 333.2734375 C-140.32648949 332.12898415 -140.32648949 332.12898415 -139.82667542 330.96141052 C-139.11656628 329.30369274 -138.40433936 327.6468809 -137.69024658 325.99087524 C-135.74047908 321.46827362 -133.8069751 316.93871476 -131.87109375 312.41015625 C-131.46765747 311.46756454 -131.06422119 310.52497284 -130.64855957 309.55381775 C-126.41898902 299.66299456 -122.26862011 289.73956166 -118.125 279.8125 C-111.96675595 265.07091013 -105.78065308 250.34142316 -99.5625 235.625 C-99.16903381 234.69378326 -98.77556763 233.76256653 -98.37017822 232.8031311 C-96.37755898 228.08765944 -94.38444093 223.3723988 -92.39111328 218.65722656 C-88.8201247 210.20948773 -85.253474 201.75991737 -81.68649292 193.31048584 C-79.70783935 188.62358232 -77.7289055 183.93679715 -75.75 179.25 C-74.95833199 177.37500057 -74.16666532 175.50000057 -73.375 173.625 C-71.79166667 169.875 -70.20833333 166.125 -68.625 162.375 C-68.23313004 161.44688507 -67.84126007 160.51877014 -67.43751526 159.56253052 C-66.6458031 157.68742652 -65.85408557 155.8123248 -65.06236267 153.93722534 C-63.08384797 149.25133502 -61.10542646 144.56540539 -59.12719727 139.87939453 C-55.55703856 131.42268985 -51.98621024 122.96627122 -48.41189575 114.51132202 C-46.41997033 109.79940911 -44.42861654 105.08725477 -42.4375 100.375 C-42.04534302 99.44697571 -41.65318604 98.51895142 -41.24914551 97.56280518 C-35.00823976 82.79069114 -28.81387747 67.99948655 -22.63357544 53.20193481 C-15.20304007 35.41814446 -7.61938595 17.70386735 0 0 Z M24 94 C19.61593751 102.40154464 15.81511724 110.95967616 12.22164917 119.72137451 C10.61306783 123.64242313 8.98898488 127.55706 7.3671875 131.47265625 C7.02225754 132.30647827 6.67732758 133.14030029 6.32194519 133.99938965 C1.91287125 144.64663072 -2.57620329 155.26012793 -7.0625 165.875 C-7.86744359 167.78116357 -8.67237549 169.68733208 -9.47729492 171.59350586 C-9.86301163 172.50613693 -10.24872833 173.41876801 -10.64613342 174.35905457 C-11.39493607 176.13118505 -12.14295529 177.90364681 -12.89012146 179.6764679 C-14.5395632 183.58319376 -16.20383575 187.48085022 -17.92529297 191.35644531 C-18.35883339 192.33957199 -18.35883339 192.33957199 -18.8011322 193.34255981 C-19.56096144 195.05943992 -20.32978167 196.77233331 -21.09936523 198.48486328 C-21.39657471 199.3148584 -21.69378418 200.14485352 -22 201 C-21.67 201.66 -21.34 202.32 -21 203 C-15.23377683 201.99440632 -9.47271584 200.96398118 -3.71484375 199.91162109 C-1.76095548 199.55797761 0.19411807 199.21081246 2.15039062 198.87060547 C24.03965915 195.17158173 24.03965915 195.17158173 40.83984375 181.48828125 C47.35345404 171.72452595 50.09193807 161.67979784 48 150 C45.85936354 142.64900887 42.67085153 135.66204665 39.59716797 128.6640625 C37.83697571 124.62600603 36.13301157 120.56712977 34.44140625 116.5 C33.84338717 115.06321408 33.24532425 113.6264464 32.6472168 112.18969727 C32.35406586 111.48547638 32.06091492 110.78125549 31.75888062 110.05569458 C29.52270283 104.69675857 27.25988736 99.34896888 25 94 C24.67 94 24.34 94 24 94 Z " fill="#060606" transform="translate(1530,134)"/>
<path d="M0 0 C33.90909506 -0.72237421 66.6908047 9.77702072 93.0546875 31.12109375 C93.78042969 31.6934375 94.50617188 32.26578125 95.25390625 32.85546875 C109.03673622 44.22833434 119.84663676 61.04611374 125.0546875 78.12109375 C125.32611572 79.00547119 125.59754395 79.88984863 125.87719727 80.80102539 C128.54773476 90.70613459 128.39532552 100.26640383 128.2421875 110.43359375 C128.1803125 116.27046875 128.1184375 122.10734375 128.0546875 128.12109375 C108.9146875 128.12109375 89.7746875 128.12109375 70.0546875 128.12109375 C69.8046875 113.24609375 69.8046875 113.24609375 69.75683594 108.61767578 C69.43473393 95.63696483 66.23415148 86.55510092 57.0546875 77.12109375 C44.91281694 66.63964993 27.13795159 59.81160956 11.0546875 59.12109375 C9.99378906 59.06953125 8.93289063 59.01796875 7.83984375 58.96484375 C-12.95095899 58.44125585 -32.42278181 63.82958929 -49.2578125 76.43359375 C-56.82836156 84.00414281 -61.94269906 92.21331458 -62.3828125 102.99609375 C-62.07972994 113.03570359 -57.86683038 120.97346458 -50.9453125 128.12109375 C-35.86475802 141.7741759 -18.40058547 145.58240051 1.0546875 149.12109375 C6.57867492 150.13088009 12.10106314 151.14894175 17.6222229 152.17407227 C19.98312624 152.60794272 22.34611142 153.02840439 24.7097168 153.44726562 C52.41188074 158.45907391 77.16846704 169.06099092 98.0546875 188.12109375 C98.79203125 188.7759375 99.529375 189.43078125 100.2890625 190.10546875 C117.64032662 206.34625197 127.72636138 229.32857595 128.57421875 252.90014648 C128.9051497 276.74409756 121.093003 296.79402514 106.0546875 315.12109375 C105.51972656 315.7965625 104.98476562 316.47203125 104.43359375 317.16796875 C84.26216662 341.87660036 50.23947635 355.02313292 19.3046875 358.37109375 C-7.02851102 360.89579869 -32.79255786 356.99925749 -56.9453125 346.12109375 C-58.09128906 345.6209375 -59.23726562 345.12078125 -60.41796875 344.60546875 C-85.30605477 333.04527547 -105.29391193 312.3801294 -115.9453125 287.12109375 C-119.1712528 277.61976805 -121.11179168 268.70396923 -121.04296875 258.66015625 C-121.04196167 257.95850342 -121.04095459 257.25685059 -121.03991699 256.53393555 C-121.0347245 253.93797142 -121.02076353 251.34203077 -121.0078125 248.74609375 C-120.9871875 242.92984375 -120.9665625 237.11359375 -120.9453125 231.12109375 C-101.8053125 231.12109375 -82.6653125 231.12109375 -62.9453125 231.12109375 C-62.6953125 245.99609375 -62.6953125 245.99609375 -62.64746094 250.62451172 C-62.34736347 262.71843977 -59.71702509 272.37999796 -50.9453125 281.12109375 C-37.72549661 291.79124898 -21.14157955 299.38279248 -3.9453125 300.12109375 C-2.88441406 300.17265625 -1.82351563 300.22421875 -0.73046875 300.27734375 C20.11951457 300.80242203 42.60987907 295.60740118 58.2734375 281.03515625 C66.20672671 272.51034987 69.710498 263.90345877 69.40234375 252.30078125 C68.29121191 242.13829458 61.30076192 233.31786148 53.63671875 226.9140625 C50.34457928 224.62799289 46.9338185 222.75470755 43.3671875 220.93359375 C42.43350342 220.45212891 42.43350342 220.45212891 41.48095703 219.9609375 C26.85786472 212.82808119 10.64892548 210.9038754 -5.21557617 208.19921875 C-43.62497753 201.6118932 -80.77504853 188.94803174 -104.34765625 155.8125 C-118.14266664 135.6212855 -124.3304183 111.67437104 -120.26171875 87.35546875 C-118.44143724 78.3762143 -115.23897001 70.2197843 -110.9453125 62.12109375 C-110.44386719 61.12722656 -109.94242188 60.13335937 -109.42578125 59.109375 C-105.13771988 51.12794691 -99.57119686 44.89917004 -93.27148438 38.48681641 C-92.21220734 37.39594827 -91.18932879 36.26977582 -90.1796875 35.1328125 C-70.06473844 12.95343445 -34.72724183 1.8683035 -5.703125 0.2109375 C-3.80179217 0.14899606 -1.90073573 0.07814696 0 0 Z " fill="#040404" transform="translate(974.9453125,127.87890625)"/>
<path d="M0 0 C19.14 0 38.28 0 58 0 C58.0093457 6.60572021 58.01869141 13.21144043 58.02832031 20.01733398 C58.06211881 41.86616546 58.11748421 63.71490321 58.18390274 85.56365871 C58.22363944 98.80782195 58.2560592 112.05192623 58.27099609 125.29614258 C58.28404044 136.84556697 58.31107606 148.39486134 58.35461307 159.9442125 C58.37716522 166.05427659 58.39291443 172.16418068 58.39188385 178.27429008 C58.39113355 184.03715827 58.40923237 189.79967361 58.44116783 195.56245041 C58.44961632 197.66613083 58.45145155 199.76985107 58.44580269 201.87354088 C58.4102064 217.18079577 59.20337601 232.63627428 66.75 246.375 C67.09506592 247.02944092 67.44013184 247.68388184 67.7956543 248.3581543 C76.1422414 263.79886673 87.51558562 275.65784317 103 284 C104.33998047 284.72316406 104.33998047 284.72316406 105.70703125 285.4609375 C125.27710001 295.14328036 148.10631237 296.28719025 168.8125 289.8125 C191.29650094 281.6124526 208.00035816 266.68488572 218.7890625 245.484375 C225.73254247 230.22924167 226.44627702 215.62287227 226.43237305 199.12353516 C226.44140472 196.94415232 226.45173535 194.76477454 226.46325684 192.58540344 C226.4906878 186.70830709 226.50009239 180.83130749 226.50611091 174.95415545 C226.51553093 168.79755395 226.54173714 162.64102371 226.56611633 156.48446655 C226.60968549 144.84371856 226.63829126 133.20298448 226.66143972 121.56217992 C226.68854287 108.30209047 226.73245117 95.04207302 226.77772844 81.78203511 C226.87043744 54.52138541 226.93996308 27.26074259 227 0 C246.14 0 265.28 0 285 0 C285.08841825 28.4336085 285.1621832 56.8671089 285.20426132 85.30082117 C285.20926329 88.66856526 285.21444066 92.03630907 285.21972656 95.40405273 C285.2207758 96.07442315 285.22182505 96.74479357 285.22290608 97.43547825 C285.24024371 108.24630243 285.27174411 119.05704028 285.30861118 129.86781349 C285.34620667 140.98609791 285.36797605 152.10434747 285.37635398 163.22269374 C285.38154135 169.4570118 285.3936218 175.69113501 285.42292023 181.92539024 C285.45034629 187.80966923 285.45839077 193.69367563 285.45243073 199.57801247 C285.45351893 201.72197076 285.46130895 203.86593948 285.4768219 206.00984192 C285.76058419 247.29901984 270.86662376 283.65553349 241.98046875 313.12109375 C214.95283714 339.7409069 178.21826329 352.66213044 140.7578125 353.02734375 C102.05861392 352.64364065 65.90249873 336.15786613 38.77539062 308.85742188 C10.97982123 279.77756875 -0.74080412 242.49239744 -0.45410156 202.86987305 C-0.45296986 200.64020305 -0.45361323 198.41053157 -0.45587158 196.18086243 C-0.45700705 190.19869098 -0.43368913 184.21684827 -0.40557575 178.23475242 C-0.38036509 171.95679682 -0.37820473 165.67883154 -0.37347412 159.40083313 C-0.3625024 148.88655374 -0.33761357 138.37237451 -0.30175781 127.8581543 C-0.26490492 117.04012638 -0.23665866 106.22213096 -0.21972656 95.40405273 C-0.21867567 94.73450893 -0.21762477 94.06496512 -0.21654204 93.37513211 C-0.21132097 90.01541553 -0.20626636 86.65569872 -0.20129442 83.29598176 C-0.15962002 55.53055274 -0.08634014 27.76532854 0 0 Z " fill="#040404" transform="translate(1121,134)"/>
<path d="M0 0 C18.48 0 36.96 0 56 0 C56 94.71 56 189.42 56 287 C112.23132799 286.96037851 112.23132799 286.96037851 168.46264648 286.90991211 C179.31262207 286.90539551 179.31262207 286.90539551 184.38417053 286.90455627 C187.94329953 286.90362071 191.50241377 286.89985775 195.0615387 286.89442444 C199.59256806 286.88759837 204.12357577 286.88550268 208.6546098 286.88692772 C210.32302888 286.88662946 211.99144867 286.88462711 213.65986335 286.88078487 C215.90257829 286.87585741 218.14520755 286.87699287 220.38792419 286.87974548 C221.6480152 286.87882369 222.90810621 286.8779019 224.2063818 286.87695217 C227 287 227 287 228 288 C228 306.48 228 324.96 228 344 C152.76 344 77.52 344 0 344 C0 230.48 0 116.96 0 0 Z " fill="#000000" transform="translate(1723,135)"/>
<path d="M0 0 C18.81 0 37.62 0 57 0 C57 114.18 57 228.36 57 346 C38.19 346 19.38 346 0 346 C-1.7404261 344.2595739 -1.12547291 341.87544449 -1.12584114 339.50737 C-1.12844889 338.30770757 -1.13105664 337.10804514 -1.13374341 335.8720293 C-1.13158088 334.52365415 -1.12932421 333.17527915 -1.12698364 331.8269043 C-1.1281345 330.4078222 -1.12972178 328.9887404 -1.13171089 327.56965923 C-1.13590913 323.65169979 -1.1338113 319.73376452 -1.13072467 315.81580496 C-1.12847279 311.59763005 -1.13194912 307.37945946 -1.13470459 303.1612854 C-1.13916357 294.89060375 -1.13818526 286.61993114 -1.13529195 278.34924912 C-1.13303841 271.63064897 -1.13272518 264.91205135 -1.13381577 258.19345093 C-1.13404561 256.76200085 -1.13404561 256.76200085 -1.13428011 255.30163258 C-1.13459982 253.36331185 -1.13492403 251.42499111 -1.1352527 249.48667037 C-1.13810786 231.28839667 -1.1348199 213.090128 -1.12945233 194.89185512 C-1.12498426 179.25895558 -1.12576018 163.62606347 -1.13037109 147.99316406 C-1.13571621 129.86235971 -1.13783317 111.73155977 -1.13475883 93.60075474 C-1.13444026 91.66935285 -1.13412589 89.73795096 -1.13381577 87.80654907 C-1.13366149 86.85613084 -1.13350721 85.90571261 -1.13334826 84.92649382 C-1.13248292 78.21184889 -1.13394635 71.49720675 -1.13629532 64.78256226 C-1.13909283 56.6055646 -1.1383561 48.42857655 -1.13301457 40.25158 C-1.13037689 36.07534427 -1.12937362 31.89912458 -1.13266373 27.72288895 C-1.13562533 23.90605961 -1.13403618 20.08926132 -1.12868617 16.27243483 C-1.1275614 14.88551159 -1.12815449 13.49858578 -1.13056196 12.11166418 C-1.13356589 10.23865453 -1.12991256 8.36563763 -1.12584114 6.49263 C-1.12567879 5.44856145 -1.12551644 4.40449289 -1.12534916 3.3287859 C-1 1 -1 1 0 0 Z " fill="#020202" transform="translate(50,134)"/>
</svg>
